<svg xmlns="http://www.w3.org/2000/svg" viewBox="0 0 64 64">
  <g data-name="13-compass">
    <path
      d="M32 42a5 5 0 1 1 5-5 5.006 5.006 0 0 1-5 5Zm0-8a3 3 0 1 0 3 3 3 3 0 0 0-3-3Z"
    />
    <path
      d="M32 64A27.175 27.175 0 0 1 5.317 41.153l1.977-.3A25 25 0 0 0 57 37h2a27.03 27.03 0 0 1-27 27Zm0-8a1 1 0 0 1-.976-.783l-3.132-14.11-14.109-3.13a1 1 0 0 1 0-1.954l14.109-3.13L30.354 21.8l1.646.368 1.646-.365 2.462 11.09L47.2 35.354 46.832 37l.365 1.646-11.089 2.461-3.132 14.11A1 1 0 0 1 32 56ZM18.617 37l10.33 2.293a1 1 0 0 1 .759.76L32 50.384l2.294-10.331a1 1 0 0 1 .759-.76L45.383 37l-10.33-2.293a1 1 0 0 1-.759-.76L32 23.617l-2.294 10.33a1 1 0 0 1-.759.76ZM5.079 39.076A27 27 0 0 1 5 37a27 27 0 0 1 53.277-6.229l-1.946.459A25 25 0 0 0 7 37c0 .643.024 1.29.073 1.924Zm51.848-4a25.335 25.335 0 0 0-.221-1.924l1.977-.3c.106.686.186 1.385.238 2.077Z"
    />
    <path
      d="M32 42a5 5 0 1 1 5-5 5.006 5.006 0 0 1-5 5Zm0-8a3 3 0 1 0 3 3 3 3 0 0 0-3-3Zm.306-11.763L32 22.168l-.306.069-.032-.143-1.308-.294.67-3.02a1 1 0 0 1 1.952 0l.67 3.02-1.308.291Z"
    />
    <path
      d="M32 42a5 5 0 1 1 5-5 5.006 5.006 0 0 1-5 5Zm0-8a3 3 0 1 0 3 3 3 3 0 0 0-3-3Zm15.2 4.646-.291-1.308-.143-.031.066-.307-.069-.307.143-.031.291-1.308 3.02.669a1 1 0 0 1 0 1.954Zm-8.692-3.873-1.716-1.027 2.3-3.837-3.837 2.3-1.028-1.716 7.26-4.35a1 1 0 0 1 1.372 1.372ZM22 48a1 1 0 0 1-.858-1.514l4.35-7.259 1.716 1.027-2.3 3.838 3.837-2.3 1.028 1.715-7.26 4.349A1 1 0 0 1 22 48Zm20 0a1 1 0 0 1-.514-.143l-7.26-4.349 1.028-1.715 3.837 2.3-2.3-3.838 1.716-1.027 4.35 7.259A1 1 0 0 1 42 48ZM25.492 34.773l-4.35-7.259a1 1 0 0 1 1.372-1.372l7.26 4.35-1.028 1.716-3.837-2.3 2.3 3.837Z"
    />
    <path
      d="M45.981 36.374a14.075 14.075 0 0 0-13.355-13.355l.088-2a16.088 16.088 0 0 1 15.265 15.267ZM32.714 52.979l-.088-2a14.076 14.076 0 0 0 13.355-13.353l2 .088a16.09 16.09 0 0 1-15.267 15.265ZM18.019 36.374l-2-.088a16.088 16.088 0 0 1 15.267-15.265l.088 2a14.075 14.075 0 0 0-13.355 13.353Zm13.267 16.605a16.09 16.09 0 0 1-15.265-15.265l2-.088a14.076 14.076 0 0 0 13.353 13.355ZM32 42a5 5 0 1 1 5-5 5.006 5.006 0 0 1-5 5Zm0-8a3 3 0 1 0 3 3 3 3 0 0 0-3-3Z"
    />
    <path
      d="M32 60a22.805 22.805 0 0 1-9.594-2.091l.835-1.816A21.012 21.012 0 0 0 53 37a21.079 21.079 0 0 0-10.5-18.19l1-1.732A23 23 0 0 1 32 60Zm-11.5-3.079A23.007 23.007 0 0 1 37.227 14.6l-.454 1.948A21 21 0 0 0 21.5 55.19ZM32 56a1 1 0 0 1-.976-.783l-3.132-14.11-14.109-3.13a1 1 0 0 1 0-1.954l14.109-3.13L30.354 21.8l1.646.368 1.646-.365 2.462 11.09L47.2 35.354 46.832 37l.365 1.646-11.089 2.461-3.132 14.11A1 1 0 0 1 32 56ZM18.617 37l10.33 2.293a1 1 0 0 1 .759.76L32 50.384l2.294-10.331a1 1 0 0 1 .759-.76L45.383 37l-10.33-2.293a1 1 0 0 1-.759-.76L32 23.617l-2.294 10.33a1 1 0 0 1-.759.76Zm21.97-19.17a21.036 21.036 0 0 0-2.3-.874l.6-1.909a22.91 22.91 0 0 1 2.524.958Z"
    />
    <circle cx="45" cy="24" r="2" />
    <path d="M45 52a2 2 0 1 1 2-2 2 2 0 0 1-2 2Zm0-2Z" />
    <circle cx="19" cy="24" r="2" />
    <path
      d="M19 52a2 2 0 1 1 2-2 2 2 0 0 1-2 2Zm0-2Zm17.828-37.944L35.452 10.6A4.92 4.92 0 0 0 37 7a5 5 0 0 0-10 0 4.92 4.92 0 0 0 1.548 3.6l-1.376 1.452a7 7 0 1 1 9.656 0Z"
    />
    <path
      d="M32 11a4 4 0 1 1 4-4 4 4 0 0 1-4 4Zm0-6a2 2 0 1 0 2 2 2 2 0 0 0-2-2Z"
    />
  </g>
</svg>
